PathFileType	4	(X/Y/Z)	C:/Users/beibeiliu/ov580/test_trc/User1\sequence.21_training_dense_left.trc
DataRate	CameraRate	NumFrames	NumMarkers	Units	OrigDataRate	OrigDataStartFrame	OrigNumFrames
120	120	24	19	mm	120	176	280
Frame#	Time	ThumbCMC			ThumbMCP			ThumbIP			ThumbTip			IndexMCP			IndexPIP			IndexTip			MiddleMCP			MiddlePIP			MiddleTip			RingMCP			RingPIP			RingTip			PinkyMCP			PinkyPIP			PinkyTip			BackHand1			BackHand2			BackHand3	
		X0	Y0	Z0	X1	Y1	Z1	X2	Y2	Z2	X3	Y3	Z3	X4	Y4	Z4	X5	Y5	Z5	X6	Y6	Z6	X7	Y7	Z7	X8	Y8	Z8	X9	Y9	Z9	X10	Y10	Z10	X11	Y11	Z11	X12	Y12	Z12	X13	Y13	Z13	X14	Y14	Z14	X15	Y15	Z15	X16	Y16	Z16	X17	Y17	Z17	X18	Y18	Z18	
175	1.45833	-135.78	68.3016	29.1608	-118.143	72.2226	-6.63242	-131.455	70.8202	-33.8321	-152.607	57.5517	-51.8285	-156.912	114.46	-41.1707	-160.221	127.603	-61.2633	-171.018	140.397	-84.2637	-183.986	118.597	-49.0832	-188.172	129.363	-69.9094	-195.287	146.391	-96.8896	-200.939	108.073	-45.3847	-201.638	123.007	-67.9634	-206.193	133.629	-86.358	-218.008	90.0125	-32.5955	-218.429	100.363	-48.2832	-219.692	119.825	-65.0579	-197.339	89.7293	9.43142	-197.58	83.9143	37.7112	-164.082	95.0721	24.945	
176	1.46667	-135.378	71.7841	24.7318	-118.971	73.1606	-7.40867	-130.55	71.3428	-34.813	-152.698	58.6479	-51.4027	-158.676	114.939	-41.6873	-167.704	128.223	-65.8484	-174.948	138.823	-84.1317	-185.472	118.283	-49.9804	-187.218	129.105	-71.2589	-195.551	147.06	-97.8132	-203.464	107.047	-45.6132	-207.947	121.129	-66.1399	-208.985	136.057	-89.9562	-214.575	89.4491	-32.2607	-222.334	101.361	-51.2406	-222.934	118.522	-66.4301	-200.586	90.1075	7.78435	-200.498	83.6225	37.5722	-164.758	97.8495	21.7444	
177	1.475	-133.205	73.4686	26.9284	-119.202	74.7342	-8.00314	-130.129	73.1207	-33.7235	-156.098	60.3454	-50.2368	-158.754	118.779	-44.8691	-168.29	128.092	-64.8849	-176.802	140.647	-88.0323	-186.122	116.326	-48.291	-191.757	130.426	-74.9168	-199.699	142.688	-97.2405	-201.719	108.401	-46.5315	-208.804	119.494	-66.1804	-211.987	134.819	-90.5543	-219.825	84.8207	-29.7956	-223.872	98.2244	-48.7939	-225.764	117.159	-68.2117	-202.291	91.549	4.43329	-203.508	80.8137	39.6696	-168.766	97.4156	23.9956	
178	1.48333	-133.834	74.3247	25.7755	-124.259	76.6311	-6.7892	-131.289	75.3668	-38.5202	-153.722	59.8096	-53.2997	-159.487	115.929	-43.6196	-171.848	126.884	-65.2429	-179.741	141.066	-89.1925	-185.882	119.546	-52.8155	-191.985	129.882	-76.5578	-201.255	142.378	-99.0724	-203.79	106.401	-45.6096	-213.931	118.629	-68.8727	-213.889	131.836	-89.9251	-221.762	86.0844	-32.8466	-222.502	95.7227	-47.9034	-224.733	114.721	-67.553	-204.63	88.9806	4.78456	-200.628	84.2404	36.9419	-167.555	98.3695	23.25	
179	1.49167	-135.433	73.8789	26.7608	-120.959	76.6942	-5.48073	-134.65	74.9865	-36.0559	-152.985	60.9365	-49.8527	-165.186	117.457	-47.6957	-170.226	126.65	-64.8946	-186.231	134.584	-86.1249	-188.302	116.423	-50.671	-194.853	125.962	-73.3626	-206.691	138.131	-98.0518	-210.74	102.043	-45.7055	-213.509	115.073	-67.2555	-219.253	128.529	-90.9046	-223.811	84.0349	-33.8135	-225.397	95.3358	-50.7617	-229.68	110.734	-67.5559	-205.333	87.1855	7.22771	-200.633	80.658	39.0326	-170.849	96.4817	24.0044	
180	1.5	-138.195	76.2239	24.6956	-122.389	78.3912	-6.71231	-136.391	76.9103	-40.7929	-160.104	59.7815	-50.2658	-169.823	113.341	-44.3014	-179.364	124.521	-68.7657	-187.963	135.285	-89.105	-192.489	116.137	-54.5256	-200.131	126.391	-77.347	-211.279	137.122	-100.28	-214.194	102.85	-48.9945	-215.342	113.024	-66.4853	-224.19	124.677	-90.9543	-221.809	82.5754	-33.9285	-227.734	91.5858	-49.0798	-233.247	107.242	-65.8308	-203.215	89.3963	5.29043	-205.803	83.663	35.9984	-174.721	94.7809	21.8053	
181	1.50833	-141.612	77.0272	23.1265	-124.841	81.1583	-11.5397	-135.474	77.0569	-38.8196	-160.61	59.1129	-52.0795	-172.717	116.064	-48.9178	-181.447	121.449	-67.2267	-192.31	134.041	-92.6244	-197.994	112.492	-52.6796	-202.02	122.028	-74.9753	-218.267	133.779	-101.82	-216.725	97.0405	-45.0989	-222.064	111.617	-70.8361	-227.704	119.477	-89.9703	-228.077	76.0504	-30.5758	-229.296	89.7194	-50.8668	-238.296	104.693	-67.3763	-206.173	87.2971	5.84463	-206.72	78.6104	39.2408	-178.201	96.9379	17.997	
182	1.51667	-142.982	75.0913	25.509	-126.9	80.3345	-10.985	-139.081	75.5999	-40.8497	-159.593	57.4725	-52.4992	-174.429	113.362	-46.636	-183.596	120.828	-67.7362	-197.197	130.998	-92.1109	-200.056	111.575	-53.2393	-209.886	121.296	-79.1277	-220.455	128.468	-99.3359	-215.17	98.745	-49.4611	-224.633	108.603	-70.7522	-234.807	118.81	-93.4182	-229.035	76.7429	-32.7063	-237.352	83.9308	-47.3633	-242.337	100.591	-68.7838	-210.175	83.3112	5.92374	-207.139	78.4293	39.8598	-178.418	95.1305	20.3797	
183	1.525	-145.544	75.73	23.4902	-127.789	78.9532	-11.8387	-140.148	74.2202	-40.2121	-164.592	56.265	-47.5712	-179.436	111.444	-48.8852	-186.229	122.495	-73.3145	-197.426	128.743	-91.5715	-204.298	107.701	-51.3048	-212.956	119.476	-79.4869	-224.607	128.495	-102.96	-219.387	95.2119	-47.5095	-230.157	105.938	-70.6867	-234.989	115.026	-91.4883	-231.495	73.9106	-30.5486	-235.455	84.5586	-49.9758	-242.271	100.492	-64.6179	-208.242	83.4105	7.78078	-211.446	77.9187	39.1281	-180.092	94.0276	21.5976	
184	1.53333	-144.961	78.3606	20.5113	-129.414	78.9621	-12.6233	-143.931	72.9885	-39.0582	-162.749	56.3433	-50.1801	-180.315	110.087	-48.434	-188.271	117.981	-70.1234	-203.59	124.585	-90.7323	-207.859	107.752	-56.436	-211.279	117.674	-77.0086	-224.405	127.03	-101.706	-223.835	95.1997	-49.9037	-229.398	104.884	-70.1925	-239.486	115.185	-93.0277	-232.691	74.8798	-32.5757	-237.275	84.7166	-50.0301	-246.944	96.651	-66.8079	-211.958	83.9479	5.85012	-208.851	76.8147	38.3471	-180.797	95.7082	17.9374	
185	1.54167	-145.937	76.7908	20.8189	-132.815	79.3608	-13.6048	-146.909	74.1283	-41.9904	-168.551	55.7498	-48.6519	-182.942	111.094	-51.0914	-192.466	117.221	-70.3549	-206.659	123.096	-91.6944	-205.982	109.091	-55.6985	-216.044	114.116	-77.985	-228.462	123.291	-102.497	-222.661	92.5336	-46.4641	-229.256	103.88	-68.1038	-239.398	112.313	-92.5488	-230.374	72.3904	-29.9342	-241.721	82.0798	-51.5056	-246.007	94.8802	-67.9218	-212.654	84.0173	5.50315	-208.972	78.7358	35.0358	-180.974	95.7628	17.0217	
186	1.55	-145.484	79.2625	21.1026	-134.058	79.8697	-14.8553	-144.79	73.4002	-43.6478	-166.736	54.4247	-51.7762	-184.192	108.156	-48.8725	-197.372	118.431	-74.7304	-209.073	122.177	-92.1257	-210.868	104.006	-52.7578	-219.01	114.591	-80.3808	-232.386	122.143	-102.86	-224.882	93.5374	-50.7818	-236.37	101.896	-70.9917	-246.609	110.379	-94.4375	-237.844	70.8552	-33.0647	-241.082	80.0194	-49.3989	-247.201	95.5886	-70.9515	-218.492	79.5913	6.61201	-213.194	79.133	36.0695	-181.979	95.115	19.5308	
187	1.55833	-151.546	76.8726	20.5245	-137.132	79.6839	-12.6196	-147.887	72.8979	-43.0727	-170.016	53.5369	-53.1317	-189.04	108.308	-52.1017	-196.982	115.923	-70.9428	-214.066	122.15	-95.9101	-211.745	105.76	-57.1391	-223.83	110.909	-78.8576	-235.324	117.873	-102.43	-226.725	92.5216	-50.2899	-236.131	100.689	-71.1024	-247.041	106.297	-91.1626	-239.707	68.7899	-32.8272	-246.872	77.0783	-49.7726	-252.407	90.5844	-70.004	-215.549	80.8323	1.80851	-216.182	74.8948	35.1545	-189.226	94.2292	15.8835	
188	1.56667	-151.466	78.5375	19.5587	-137.898	81.3309	-16.3022	-151.495	73.424	-44.3757	-173.843	52.1373	-50.5996	-190.416	107.784	-51.8377	-199.563	114.85	-72.4001	-217.602	118.931	-95.4633	-216.818	100.572	-53.1516	-224.661	109.53	-79.1544	-239.667	119.43	-106.979	-232.359	88.5254	-48.8862	-242.641	97.8154	-70.8861	-250.726	105.926	-94.3637	-239.709	68.6867	-34.5802	-248.923	73.7635	-48.3307	-256.58	85.8305	-68.2873	-223.202	79.367	2.33672	-216.04	74.2374	38.7136	-190.761	94.6928	14.4129	
189	1.575	-152.889	78.8203	18.0893	-142.981	80.1907	-15.0178	-151.372	72.1545	-43.9343	-175.273	50.0939	-53.6318	-189.794	107.618	-50.4059	-202.395	114.748	-73.8928	-216.542	118.871	-94.9047	-217.475	101.114	-54.6491	-228.884	106.984	-78.4749	-244.1	114.628	-104.981	-231.343	89.4939	-50.215	-246.401	96.8419	-72.4847	-253.685	105.695	-94.3895	-242.435	67.1619	-33.3529	-247.174	73.2416	-49.2658	-256.617	86.9061	-70.5503	-219.892	79.3337	6.85582	-217.622	74.6914	39.4212	-188.562	92.8773	15.7744	
190	1.58333	-150.787	79.9401	17.7294	-141.437	80.4134	-18.748	-154.137	71.898	-45.9688	-175.19	51.0929	-54.4622	-191.582	105.524	-50.3629	-205.766	110.429	-72.3709	-219.816	118.16	-96.8703	-218.718	100.692	-56.1978	-228.107	108.89	-82.058	-244.187	113.27	-104.136	-235.27	84.1548	-47.2007	-242.614	95.7048	-71.0268	-256.052	102.523	-92.7251	-239.72	63.9527	-29.7114	-248.26	73.2771	-50.2298	-257.48	88.3974	-71.1208	-223.797	76.5413	1.83113	-219.393	73.6524	34.8341	-187.83	93.1387	18.3724	
191	1.59167	-154.303	79.3088	16.7584	-139.514	80.2076	-14.9072	-151.714	72.546	-41.5667	-175.012	53.014	-50.6132	-192.299	106.243	-52.1885	-204.702	113.914	-74.2663	-219.963	117.099	-94.5404	-218.28	101.319	-55.9235	-229.534	106.774	-78.5436	-243.815	115.616	-105.805	-231.259	89.4521	-50.4411	-244.608	95.8849	-71.9539	-254.963	102.834	-92.9093	-238.102	66.5724	-32.0861	-248.537	73.9848	-48.4292	-254.855	88.1471	-72.1657	-223.606	78.8142	3.61762	-219.052	75.4693	34.8361	-191.678	91.5742	18.4929	
192	1.6	-149.434	79.0142	19.2944	-138.805	80.7081	-16.7113	-154.173	72.5754	-42.0771	-175.567	50.5011	-53.5252	-191.382	108.924	-53.3718	-203.774	111.625	-71.8679	-215.812	120.759	-96.9378	-216.283	101.49	-53.7478	-228.237	106.913	-79.0693	-241.137	116.118	-103.311	-232.983	87.938	-49.6232	-243.162	98.0256	-71.6602	-249.714	107.549	-94.7147	-241.798	65.6835	-30.7958	-249.645	74.3536	-47.712	-257.33	89.1362	-68.1499	-220.884	78.229	6.3485	-214.028	75.5962	39.1756	-188.656	92.927	18.1414	
193	1.60833	-148.543	78.0181	22.3566	-138.86	77.8626	-13.3089	-153.584	71.8345	-42.1769	-171.906	52.3522	-54.5983	-189.532	109.588	-53.5632	-199.29	114.747	-73.696	-216.784	120.218	-94.3793	-214.986	104.1	-57.9683	-225.396	109.013	-78.4248	-239.399	117.347	-103.764	-232.493	89.7235	-50.1698	-239.999	99.963	-72.0386	-248.45	106.341	-91.082	-236.176	68.3118	-29.9942	-248.098	76.8113	-48.2654	-255.806	92.7615	-71.0183	-221.617	79.3314	2.89539	-219.002	76.4178	38.7582	-186.231	94.1473	17.5893	
194	1.61667	-150.524	77.0513	18.6044	-136.434	78.4627	-14.4779	-149.143	70.9876	-38.9819	-172.471	54.7775	-50.217	-187.46	108.791	-51.8903	-198.24	117.184	-75.5291	-209.455	122.886	-92.335	-210.799	106.059	-56.0807	-222.475	113.419	-80.9816	-235.591	119.779	-102.693	-228.404	91.2945	-46.793	-237.48	100.967	-69.3782	-245.576	112.212	-94.9737	-236.705	70.6235	-30.5344	-244.113	80.9405	-52.1926	-250.32	95.8518	-71.3132	-219.484	80.7981	5.7358	-214.73	75.8277	37.8836	-186.436	93.377	20.071	
195	1.625	-147.762	73.0111	21.7534	-134.732	75.2637	-11.6881	-148.515	72.1977	-41.3158	-167.736	54.4483	-53.4657	-181.457	109.735	-49.0426	-195.034	119.064	-74.0203	-206.782	125.427	-93.0086	-208.736	108.533	-56.0731	-218.504	114.095	-76.349	-229.645	126.224	-105.684	-227.143	92.9796	-47.1784	-235.198	104.087	-69.3693	-241.624	113.416	-91.5515	-234.754	74.7249	-33.6089	-239.955	83.6183	-49.0848	-244.938	99.6804	-72.5703	-216.733	84.3908	4.57472	-212.652	79.0859	34.7008	-184.55	95.3809	15.7884	
196	1.63333	-149.259	71.0339	21.2876	-132.828	72.4677	-9.86416	-143.71	69.5961	-39.6324	-171.579	54.8633	-55.2471	-176.273	111.222	-49.1842	-187.946	117.882	-69.8441	-202.564	127.507	-91.9735	-203.567	109.44	-53.0356	-214.419	118.727	-79.8648	-221.058	132.646	-105.803	-222.445	98.4814	-48.7862	-226.173	111.381	-73.0946	-233.285	119.94	-93.4118	-231.509	78.332	-33.1875	-238.129	88.9392	-50.891	-243.417	103.639	-71.3059	-216.115	85.4857	4.70029	-213.834	81.073	37.3564	-178.512	94.2078	20.0966	
197	1.64167	-143.829	70.5822	22.191	-130.593	69.1056	-9.47603	-145.558	68.466	-39.3769	-168.009	54.853	-55.2325	-171.401	113.212	-50.1683	-182.957	122.288	-72.5079	-192.336	130.602	-91.431	-200.22	111.818	-52.9676	-202.557	122.493	-77.1583	-213.681	137.15	-104.912	-216.527	102.396	-48.2237	-220.412	114.462	-70.9247	-229.734	123.322	-92.7198	-228.872	83.1013	-33.4061	-234.812	93.1748	-51.3942	-237.559	109.809	-67.6965	-210.928	88.2838	3.55906	-210.406	79.5476	38.6366	-178.438	93.9545	17.3704	
198	1.65	-140.916	65.3689	25.1256	-130.495	66.0261	-9.36679	-140.036	64.8538	-37.206	-166.843	55.2569	-53.3679	-166.199	110.53	-46.0728	-172.557	124.052	-69.7398	-187.22	132.911	-90.4494	-195.622	115.262	-55.2662	-201.448	126.315	-78.8248	-206.57	140.042	-103.327	-214.582	103.949	-46.1502	-219.736	117.979	-70.6825	-220.725	128.084	-90.4947	-227.528	84.728	-31.0969	-232.444	97.0275	-49.3896	-234.021	113.48	-66.5384	-209.619	90.6602	2.39035	-207.028	81.4624	36.6522	-174.455	92.6087	21.7254	
